/* XPM */
static char * logo_xpm[] = {
"32 32 25 1",
" 	c None",
".	c #FFD700",
"+	c #000000",
"@	c #B22222",
"#	c #060400",
"$	c #052092",
"%	c #041C91",
"&	c #051F92",
"*	c #062594",
"=	c #041E91",
"-	c #000004",
";	c #052192",
">	c #051F8F",
",	c #052293",
"'	c #B22323",
")	c #751616",
"!	c #062393",
"~	c #02128F",
"{	c #041B91",
"]	c #000021",
"^	c #00000D",
"/	c #052091",
"(	c #000002",
"_	c #041D91",
":	c #041D92",
"                                ",
"  ............                  ",
"  ............                  ",
"  ............+++++++++         ",
"  ............        +         ",
"  ....    ....      +++++       ",
"  ....    ....       +++        ",
"  ....    ....        +         ",
"  ....    ....       @@@@@      ",
"  ............      @@@@@@@@    ",
"  ............    @@@@@@@@@@@   ",
"  ............    @@@     @@@   ",
"  ............   @@@       @@@  ",
"    #            @@@       @@@  ",
"   +++           @@@       @@@  ",
"  +++++          @@@       @@@  ",
"    +   $%       @@@       @@@  ",
"    +  &**=      @@@@     @@@@  ",
"    + &****$      @@@@@@@@@@@   ",
"    -&******;      @@@@@@@@@    ",
"    >***  ***,      '@@@@@@     ",
"   &***    ***,        )        ",
"  &***      ***!       +        ",
" ~***        **;       +        ",
"  {***      **;        +        ",
"   %***    **$]        +        ",
"    %***  **$^+        +        ",
"     %*****/(+++++++++++        ",
"      _***$  ++                 ",
"       :*$    +                 ",
"        *                       ",
"                                "};
