/* XPM */
static char * page_xpm[] = {
"32 32 37 1",
"5 c #7198D9",
", c #769CDA",
"2 c #DCE6F6",
"i c #FFFFFF",
"e c #779DDB",
": c #9AB6E4",
"9 c #EAF0FA",
"- c #B1C7EB",
"$ c #6992D7",
"y c #F7F9FD",
"= c #BED0EE",
"q c #F0F5FC",
"; c #A8C0E8",
"@ c #366BC2",
"  c None",
"u c #FDFEFF",
"8 c #5987D3",
"* c #C4D5F0",
"7 c #7CA0DC",
"O c #487BCE",
"< c #6B94D7",
"& c #CCDAF2",
"> c #89A9DF",
"3 c #5584D1",
"w c #82A5DE",
"1 c #3F74CB",
"+ c #3A70CA",
". c #3569BF",
"% c #D2DFF4",
"# c #3366BB",
"r c #F5F8FD",
"0 c #FAFCFE",
"4 c #DFE8F7",
"X c #5E8AD4",
"o c #5282D0",
"t c #B8CCEC",
"6 c #E5EDF9",
"                                ",
"                                ",
"                                ",
"                                ",
"                                ",
"       .XXXooOO++@#             ",
"       $%&*=-;::>,<1            ",
"       $2%&*=-;::><:3           ",
"       $42%&*=-;::<&:3          ",
"       56477<<<<8<<9&:X         ",
"       59642%&*=-;<09&:5        ",
"       5q9642%&*=-<<<<<#        ",
"       5qqw777<<<<<88:>+        ",
"       erqq9642%&*=t;::+        ",
"       eyrqq9642%&*=t;:O        ",
"       eyywwww777<<<<t;O        ",
"       e0yyrqq9642%&*=to        ",
"       e00yyrqq9642%&*=o        ",
"       eu0wwwwwww777<&*X        ",
"       euu00yyrqq9642%&X        ",
"       eiuu00yyrqq9642%X        ",
"       eiiwwwwwwwwww742$        ",
"       eiiiuu00yyrqq964$        ",
"       eiiiiuu00yyrqq96$        ",
"       eiiiiiuu00yyrqq95        ",
"       eiiiiiiuu00yyrqq5        ",
"       eeeeeeeeeeeeee55e        ",
"                                ",
"                                ",
"                                ",
"                                ",
"                                "
};
