<?xml version="1.0" encoding="UTF-8" standalone="no"?>
<svg
   xmlns:ooo="http://xml.openoffice.org/svg/export"
   xmlns:dc="http://purl.org/dc/elements/1.1/"
   xmlns:cc="http://creativecommons.org/ns#"
   xmlns:rdf="http://www.w3.org/1999/02/22-rdf-syntax-ns#"
   xmlns:svg="http://www.w3.org/2000/svg"
   xmlns="http://www.w3.org/2000/svg"
   xmlns:sodipodi="http://sodipodi.sourceforge.net/DTD/sodipodi-0.dtd"
   xmlns:inkscape="http://www.inkscape.org/namespaces/inkscape"
   version="1.2"
   width="158.75mm"
   height="158.75mm"
   viewBox="0 0 15875 15875"
   preserveAspectRatio="xMidYMid"
   fill-rule="evenodd"
   stroke-width="28.222"
   stroke-linejoin="round"
   xml:space="preserve"
   id="svg107"
   sodipodi:docname="logo.svg"
   inkscape:version="1.0.1 (3bc2e813f5, 2020-09-07)"><metadata
   id="metadata111"><rdf:RDF><cc:Work
       rdf:about=""><dc:format>image/svg+xml</dc:format><dc:type
         rdf:resource="http://purl.org/dc/dcmitype/StillImage" /><dc:title></dc:title></cc:Work></rdf:RDF></metadata><sodipodi:namedview
   pagecolor="#ffffff"
   bordercolor="#666666"
   borderopacity="1"
   objecttolerance="10"
   gridtolerance="10"
   guidetolerance="10"
   inkscape:pageopacity="0"
   inkscape:pageshadow="2"
   inkscape:window-width="3440"
   inkscape:window-height="1368"
   id="namedview109"
   showgrid="false"
   inkscape:zoom="1.2611806"
   inkscape:cx="238.22362"
   inkscape:cy="230.66457"
   inkscape:window-x="0"
   inkscape:window-y="0"
   inkscape:window-maximized="1"
   inkscape:current-layer="svg107" />
 <defs
   class="ClipPathGroup"
   id="defs8">
  <clipPath
   id="presentation_clip_path"
   clipPathUnits="userSpaceOnUse">
   <rect
   x="0"
   y="0"
   width="15000"
   height="15000"
   id="rect2" />
  </clipPath>
  <clipPath
   id="presentation_clip_path_shrink"
   clipPathUnits="userSpaceOnUse">
   <rect
   x="15"
   y="15"
   width="14970"
   height="14970"
   id="rect5" />
  </clipPath>
 </defs>
 <defs
   class="TextShapeIndex"
   id="defs12">
  <g
   ooo:slide="id1"
   ooo:id-list="id3 id4 id5 id6 id7 id8"
   id="g10" />
 </defs>
 <defs
   class="EmbeddedBulletChars"
   id="defs44">
  <g
   id="bullet-char-template-57356"
   transform="matrix(4.8828125e-4,0,0,-4.8828125e-4,0,0)">
   <path
   d="M 580,1141 1163,571 580,0 -4,571 Z"
   id="path14" />
  </g>
  <g
   id="bullet-char-template-57354"
   transform="matrix(4.8828125e-4,0,0,-4.8828125e-4,0,0)">
   <path
   d="M 8,1128 H 1137 V 0 H 8 Z"
   id="path17" />
  </g>
  <g
   id="bullet-char-template-10146"
   transform="matrix(4.8828125e-4,0,0,-4.8828125e-4,0,0)">
   <path
   d="M 174,0 602,739 174,1481 1456,739 Z M 1358,739 309,1346 659,739 Z"
   id="path20" />
  </g>
  <g
   id="bullet-char-template-10132"
   transform="matrix(4.8828125e-4,0,0,-4.8828125e-4,0,0)">
   <path
   d="M 2015,739 1276,0 H 717 l 543,543 H 174 v 393 h 1086 l -543,545 h 557 z"
   id="path23" />
  </g>
  <g
   id="bullet-char-template-10007"
   transform="matrix(4.8828125e-4,0,0,-4.8828125e-4,0,0)">
   <path
   d="m 0,-2 c -7,16 -16,29 -25,39 l 381,530 c -94,256 -141,385 -141,387 0,25 13,38 40,38 9,0 21,-2 34,-5 21,4 42,12 65,25 l 27,-13 111,-251 280,301 64,-25 24,25 c 21,-10 41,-24 62,-43 C 886,937 835,863 770,784 769,783 710,716 594,584 L 774,223 c 0,-27 -21,-55 -63,-84 l 16,-20 C 717,90 699,76 672,76 641,76 570,178 457,381 L 164,-76 c -22,-34 -53,-51 -92,-51 -42,0 -63,17 -64,51 -7,9 -10,24 -10,44 0,9 1,19 2,30 z"
   id="path26" />
  </g>
  <g
   id="bullet-char-template-10004"
   transform="matrix(4.8828125e-4,0,0,-4.8828125e-4,0,0)">
   <path
   d="M 285,-33 C 182,-33 111,30 74,156 52,228 41,333 41,471 c 0,78 14,145 41,201 34,71 87,106 158,106 53,0 88,-31 106,-94 l 23,-176 c 8,-64 28,-97 59,-98 l 735,706 c 11,11 33,17 66,17 42,0 63,-15 63,-46 V 965 c 0,-36 -10,-64 -30,-84 L 442,47 C 390,-6 338,-33 285,-33 Z"
   id="path29" />
  </g>
  <g
   id="bullet-char-template-9679"
   transform="matrix(4.8828125e-4,0,0,-4.8828125e-4,0,0)">
   <path
   d="M 813,0 C 632,0 489,54 383,161 276,268 223,411 223,592 c 0,181 53,324 160,431 106,107 249,161 430,161 179,0 323,-54 432,-161 108,-107 162,-251 162,-431 0,-180 -54,-324 -162,-431 C 1136,54 992,0 813,0 Z"
   id="path32" />
  </g>
  <g
   id="bullet-char-template-8226"
   transform="matrix(4.8828125e-4,0,0,-4.8828125e-4,0,0)">
   <path
   d="m 346,457 c -73,0 -137,26 -191,78 -54,51 -81,114 -81,188 0,73 27,136 81,188 54,52 118,78 191,78 73,0 134,-26 185,-79 51,-51 77,-114 77,-187 0,-75 -25,-137 -76,-188 -50,-52 -112,-78 -186,-78 z"
   id="path35" />
  </g>
  <g
   id="bullet-char-template-8211"
   transform="matrix(4.8828125e-4,0,0,-4.8828125e-4,0,0)">
   <path
   d="M -4,459 H 1135 V 606 H -4 Z"
   id="path38" />
  </g>
  <g
   id="bullet-char-template-61548"
   transform="matrix(4.8828125e-4,0,0,-4.8828125e-4,0,0)">
   <path
   d="m 173,740 c 0,163 58,303 173,419 116,115 255,173 419,173 163,0 302,-58 418,-173 116,-116 174,-256 174,-419 0,-163 -58,-303 -174,-418 C 1067,206 928,148 765,148 601,148 462,206 346,322 231,437 173,577 173,740 Z"
   id="path41" />
  </g>
 </defs>
 <g
   id="g49"
   transform="matrix(1.1969142,0,0,1.1920121,-695.41869,-1007.5811)">
  <g
   id="id2"
   class="Master_Slide">
   <g
   id="bg-id2"
   class="Background" />
   <g
   id="bo-id2"
   class="BackgroundObjects" />
  </g>
 </g>
 <g
   class="SlideGroup"
   id="g105"
   transform="matrix(1.1969142,0,0,1.1920121,-695.41869,-1007.5811)">
  <g
   id="g103">
   <g
   id="container-id1">
    <g
   id="id1"
   class="Slide"
   clip-path="url(#presentation_clip_path)">
     <g
   class="Page"
   id="g99">
      <g
   class="com.sun.star.drawing.LineShape"
   id="g58">
       <g
   id="id3">
        <rect
   class="BoundingBox"
   stroke="none"
   fill="none"
   x="1979"
   y="6330"
   width="1013"
   height="3098"
   id="rect51" />
        <path
   fill="none"
   stroke="#000000"
   stroke-width="353"
   stroke-linejoin="round"
   d="M 2500,9250 2485,7391"
   id="path53" />
        <path
   fill="#000000"
   stroke="none"
   d="m 2986,7375 -456,-1003 -22,-29 -30,-12 -33,12 -21,26 -440,1014 -5,13 v 8 l 5,21 13,21 17,13 21,3 901,-7 21,-4 21,-13 8,-21 4,-21 v -8 z"
   id="path55" />
       </g>
      </g>
      <g
   class="com.sun.star.drawing.CustomShape"
   id="g65">
       <g
   id="id4">
        <rect
   class="BoundingBox"
   stroke="none"
   fill="none"
   x="1397"
   y="1397"
   width="4957"
   height="4957"
   id="rect60" />
        <path
   fill="none"
   stroke="#ffd700"
   stroke-width="706"
   stroke-linejoin="round"
   d="M 3875,6000 H 1750 V 1750 h 4250 v 4250 z"
   id="path62" />
       </g>
      </g>
      <g
   class="com.sun.star.drawing.CustomShape"
   id="g72">
       <g
   id="id5">
        <rect
   class="BoundingBox"
   stroke="none"
   fill="none"
   x="7647"
   y="4197"
   width="5708"
   height="5708"
   id="rect67" />
        <path
   fill="none"
   stroke="#b22222"
   stroke-width="706"
   stroke-linejoin="round"
   d="m 13001,7051 c 0,438 -116,870 -335,1250 -219,380 -535,696 -915,915 -380,219 -812,335 -1250,335 -439,0 -871,-116 -1251,-335 -380,-219 -696,-535 -915,-915 -219,-380 -335,-812 -335,-1250 0,-439 116,-871 335,-1251 219,-380 535,-696 915,-915 380,-219 812,-335 1251,-335 438,0 870,116 1250,335 380,219 696,535 915,915 219,380 335,812 335,1250 z"
   id="path69" />
       </g>
      </g>
      <g
   class="com.sun.star.drawing.CustomShape"
   id="g79">
       <g
   id="id6">
        <rect
   class="BoundingBox"
   stroke="none"
   fill="none"
   x="1197"
   y="7397"
   width="6208"
   height="6208"
   id="rect74" />
        <path
   fill="none"
   stroke="#00008b"
   stroke-width="706"
   stroke-linejoin="round"
   d="M 4300,7750 7051,10500 4300,13251 1550,10500 Z"
   id="path76" />
       </g>
      </g>
      <g
   class="com.sun.star.drawing.PolyLineShape"
   id="g88">
       <g
   id="id7">
        <rect
   class="BoundingBox"
   stroke="none"
   fill="none"
   x="6173"
   y="2373"
   width="4584"
   height="1869"
   id="rect81" />
        <path
   fill="none"
   stroke="#000000"
   stroke-width="353"
   stroke-linejoin="round"
   d="m 6350,2550 h 3900 v 631"
   id="path83" />
        <path
   fill="#000000"
   stroke="none"
   d="m 9748,3193 449,1006 22,30 29,12 33,-12 21,-26 449,-1010 5,-13 v -8 l -5,-21 -12,-21 -17,-13 -21,-4 h -902 l -21,4 -21,13 -9,21 -3,21 v 8 z"
   id="path85" />
       </g>
      </g>
      <g
   class="com.sun.star.drawing.PolyLineShape"
   id="g97">
       <g
   id="id8">
        <rect
   class="BoundingBox"
   stroke="none"
   fill="none"
   x="5595"
   y="9707"
   width="5083"
   height="3150"
   id="rect90" />
        <path
   fill="none"
   stroke="#000000"
   stroke-width="353"
   stroke-linejoin="round"
   d="m 6655,12350 h 3845 V 9884"
   id="path92" />
        <path
   fill="#000000"
   stroke="none"
   d="m 6643,11848 -1006,449 -30,22 -12,29 12,33 26,21 1010,449 13,5 h 8 l 21,-5 21,-12 13,-17 4,-21 v -902 l -4,-21 -13,-21 -21,-9 -21,-3 h -8 z"
   id="path94" />
       </g>
      </g>
     </g>
    </g>
   </g>
  </g>
 </g>
</svg>
